<?xml version="1.0" encoding="UTF-8" standalone="no"?>
<svg
   xmlns:dc="http://purl.org/dc/elements/1.1/"
   xmlns:cc="http://creativecommons.org/ns#"
   xmlns:rdf="http://www.w3.org/1999/02/22-rdf-syntax-ns#"
   xmlns:svg="http://www.w3.org/2000/svg"
   xmlns="http://www.w3.org/2000/svg"
   xmlns:sodipodi="http://sodipodi.sourceforge.net/DTD/sodipodi-0.dtd"
   xmlns:inkscape="http://www.inkscape.org/namespaces/inkscape"
   enable-background="new 0 0 512 512"
   height="620"
   viewBox="0 0 390 620"
   width="390"
   version="1.1"
   id="svg16"
   sodipodi:docname="classiAlto.svg"
   inkscape:version="1.0beta1 (32d4812, 2019-09-19)">
  <metadata
     id="metadata22">
    <rdf:RDF>
      <cc:Work
         rdf:about="">
        <dc:format>image/svg+xml</dc:format>
        <dc:type
           rdf:resource="http://purl.org/dc/dcmitype/StillImage" />
        <dc:title></dc:title>
      </cc:Work>
    </rdf:RDF>
  </metadata>
  <defs
     id="defs20" />
  <sodipodi:namedview
     pagecolor="#ffffff"
     bordercolor="#666666"
     inkscape:document-rotation="0"
     borderopacity="1"
     objecttolerance="10"
     gridtolerance="10"
     guidetolerance="10"
     inkscape:pageopacity="0"
     inkscape:pageshadow="2"
     inkscape:window-width="1280"
     inkscape:window-height="706"
     id="namedview18"
     showgrid="false"
     inkscape:zoom="0.35"
     inkscape:cx="-150"
     inkscape:cy="560"
     inkscape:window-x="0"
     inkscape:window-y="23"
     inkscape:window-maximized="0"
     inkscape:current-layer="svg16" />
  <path
     id="path104"
     style="opacity:1;stroke-width:0.816328;stop-opacity:1;fill:#e04055;fill-opacity:1"
     d="m 314.99837,205.07594 c 0,6.76247 -5.48245,12.24494 -12.2449,12.24494 -6.68898,0 -12.11592,-5.36574 -12.23429,-12.02616 h -12.33305 c -2.0596,14.0531 -7.60491,26.98865 -15.73225,37.89398 l 8.74612,8.74615 c 4.79347,-4.62695 12.42449,-4.58451 17.1551,0.14612 4.78123,4.78206 4.78123,12.53473 0,17.31678 l -8.49877,8.49799 c -0.002,0.002 -0.003,0.004 -0.006,0.007 -0.002,0.002 -0.004,0.003 -0.007,0.006 l -8.49796,8.49798 c -2.39102,2.39103 -5.5249,3.58695 -8.65796,3.58695 -3.13388,0 -6.26694,-1.19511 -8.65796,-3.58695 -4.7298,-4.72981 -4.77306,-12.36167 -0.14612,-17.15434 l -8.74612,-8.74615 c -10.90612,8.12738 -23.84083,13.6727 -37.89388,15.73148 v 12.3331 c 6.66122,0.11755 12.02693,5.5445 12.02693,12.23431 0,6.76247 -5.48244,12.24493 -12.24489,12.24493 h -24.05388 c -6.76245,0 -12.2449,-5.48246 -12.2449,-12.24493 0,-6.68899 5.36572,-12.11676 12.02694,-12.23431 v -12.3331 c -14.05306,-2.05959 -26.98776,-7.60492 -37.89388,-15.73148 l -8.74612,8.74615 c 4.62694,4.79267 4.58367,12.42534 -0.14613,17.15434 -2.39102,2.39103 -5.52489,3.58695 -8.65796,3.58695 -3.13305,0 -6.26693,-1.19592 -8.65795,-3.58695 l -8.49737,-8.49815 c -0.002,-0.002 -0.004,-0.003 -0.007,-0.006 -0.002,-0.002 -0.003,-0.004 -0.006,-0.007 l -8.49878,-8.49782 c -4.78204,-4.78124 -4.78204,-12.53391 0,-17.31678 4.73062,-4.72981 12.36245,-4.77307 17.15511,-0.14612 l 8.74613,-8.74615 c -8.12741,-10.90533 -13.67271,-23.84088 -15.73149,-37.89398 H 99.47918 c -0.117551,6.66042 -5.545307,12.02616 -12.234286,12.02616 -6.762449,0 -12.244898,-5.48247 -12.244898,-12.24494 v -24.05313 c 0,-6.76246 5.482449,-12.24492 12.244898,-12.24492 6.688979,0 12.115918,5.36573 12.234286,12.02615 h 12.33388 c 2.05959,-14.0531 7.6049,-26.98864 15.73143,-37.89398 l -8.74612,-8.74615 c -2.3698,2.28817 -5.43102,3.44001 -8.49633,3.44001 -3.13388,0 -6.26694,-1.19592 -8.65796,-3.58695 -4.782043,-4.78123 -4.782043,-12.53391 0,-17.31678 l 17.00816,-17.009025 c 4.78204,-4.781238 12.5347,-4.781238 17.31674,0 4.7298,4.729805 4.77306,12.361665 0.14613,17.155155 l 8.74612,8.74614 c 10.90612,-8.12737 23.84081,-13.67269 37.89387,-15.73229 V 97.52871 c -6.66122,-0.117552 -12.02694,-5.544503 -12.02694,-12.234317 0,-6.762468 5.48246,-12.244932 12.2449,-12.244932 h 24.05388 c 6.76245,0 12.2449,5.482464 12.2449,12.244932 0,6.688997 -5.36572,12.116765 -12.02694,12.234317 v 12.33309 c 14.05306,2.0596 26.98857,7.60492 37.89469,15.7323 l 8.74612,-8.74615 c -4.62693,-4.79349 -4.58367,-12.42534 0.14613,-17.155153 4.78204,-4.782054 12.5347,-4.782054 17.31673,0 l 17.00817,17.009023 c 4.78122,4.78205 4.78122,12.53473 0,17.31679 -2.39102,2.39102 -5.5249,3.58694 -8.65797,3.58694 -3.06611,0 -6.12571,-1.15183 -8.49632,-3.44001 l -8.74612,8.74615 c 8.12734,10.90616 13.67265,23.8417 15.73143,37.8948 h 12.33306 c 0.11755,-6.66043 5.54531,-12.02616 12.23428,-12.02616 6.76246,0 12.2449,5.48247 12.2449,12.24493 v 24.05068 z m -70.84735,-24.16088 c 4.15102,0 7.81224,2.07021 10.02694,5.2294 -1.30041,-11.2139 -5.72489,-21.48169 -12.37959,-29.9209 0.68653,3.81389 -0.43673,7.89064 -3.38531,10.8384 -4.78204,4.78206 -12.53469,4.78206 -17.31673,0 -4.78205,-4.78205 -4.78205,-12.53472 0,-17.31678 2.95755,-2.95756 7.05061,-4.08083 10.87592,-3.3796 -8.48245,-6.73226 -18.82694,-11.20493 -30.13062,-12.50371 3.25551,2.2049 5.40164,5.93227 5.40164,10.14534 0,6.74451 -5.50041,12.24493 -12.2449,12.24493 -6.74449,0 -12.2449,-5.50042 -12.2449,-12.24493 0,-4.21307 2.14694,-7.94044 5.40163,-10.14534 -11.30286,1.29878 -21.64735,5.77145 -30.12979,12.50371 3.82448,-0.70041 7.91755,0.42285 10.8751,3.3796 4.78204,4.78206 4.78204,12.53473 0,17.31678 -4.78205,4.78206 -12.53469,4.78206 -17.31673,0 -2.94776,-2.94776 -4.07184,-7.02369 -3.38531,-10.83758 -6.6547,8.43839 -11.07837,18.70618 -12.37878,29.91927 2.2147,-3.15838 5.87592,-5.22859 10.02613,-5.22859 6.76244,0 12.2449,5.48247 12.2449,12.24493 0,6.76247 -5.48246,12.24494 -12.2449,12.24494 -4.1298,0 -7.7747,-2.05062 -9.99266,-5.18287 1.33715,11.08656 5.72653,21.24087 12.30612,29.60334 -0.58694,-3.73552 0.54613,-7.689 3.4245,-10.56738 4.78204,-4.78205 12.53468,-4.78205 17.31673,0 4.78204,4.78206 4.78204,12.53473 0,17.31679 -2.86858,2.86857 -6.80572,4.00327 -10.5298,3.4294 8.32735,6.51021 18.41796,10.85472 29.42939,12.18696 -3.05061,-2.23102 -5.04571,-5.82531 -5.04571,-9.87921 0,-6.74369 5.5004,-12.24493 12.24489,-12.24493 6.7445,0 12.2449,5.50124 12.2449,12.24493 0,4.0539 -1.99591,7.64819 -5.04571,9.87921 11.01142,-1.33306 21.10204,-5.67675 29.42939,-12.18696 -3.7249,0.57387 -7.66204,-0.56083 -10.53061,-3.4294 -4.78205,-4.78206 -4.78205,-12.53473 0,-17.31679 4.78204,-4.78205 12.53469,-4.78205 17.31673,0 2.87836,2.87838 4.01143,6.83186 3.42449,10.5682 6.58041,-8.36247 10.96979,-18.51679 12.30694,-29.60416 -2.21796,3.13225 -5.86286,5.18368 -9.99266,5.18368 -6.76244,0 -12.24489,-5.48165 -12.24489,-12.24493 -0.002,-6.76328 5.48081,-12.24575 12.24326,-12.24575 z m -49.15265,24.37966 c -6.74449,0 -12.2449,-5.50043 -12.2449,-12.24494 0,-6.74368 5.50041,-12.24492 12.2449,-12.24492 6.74449,0 12.2449,5.50042 12.2449,12.24492 0,6.7437 -5.50041,12.24494 -12.2449,12.24494 z"
     inkscape:connector-curvature="0" />
  <g
     style="opacity:1;stop-opacity:1"
     id="g30"
     transform="matrix(0.99796058,0,0,0.99959694,-114.49203,-1.0175e-6)">
    <g
       id="g28">
      <path
         id="path26"
         d="M 310.129,0 C 202.218,0 114.726,87.492 114.726,195.394 c 0,107.931 195.403,424.856 195.403,424.856 0,0 195.394,-316.934 195.394,-424.856 C 505.533,87.502 418.06,0 310.129,0 Z m 0,346.597 c -83.369,0 -151.193,-67.805 -151.193,-151.193 0,-83.359 67.824,-151.184 151.193,-151.184 83.359,0 151.193,67.834 151.193,151.193 10e-4,83.369 -67.834,151.184 -151.193,151.184 z"
         style="fill:#e04055;fill-opacity:1"
         inkscape:connector-curvature="0"
         sodipodi:nodetypes="ssccsssscs" />
    </g>
  </g>
  <g
     style="opacity:1;stop-opacity:1"
     id="g34"
     transform="translate(312.58191,-26.798682)" />
  <g
     style="opacity:1;stop-opacity:1"
     id="g36"
     transform="translate(312.58191,-26.798682)" />
  <g
     style="opacity:1;stop-opacity:1"
     id="g38"
     transform="translate(312.58191,-26.798682)" />
  <g
     style="opacity:1;stop-opacity:1"
     id="g40"
     transform="translate(312.58191,-26.798682)" />
  <g
     style="opacity:1;stop-opacity:1"
     id="g42"
     transform="translate(312.58191,-26.798682)" />
  <g
     style="opacity:1;stop-opacity:1"
     id="g44"
     transform="translate(312.58191,-26.798682)" />
  <g
     style="opacity:1;stop-opacity:1"
     id="g46"
     transform="translate(312.58191,-26.798682)" />
  <g
     style="opacity:1;stop-opacity:1"
     id="g48"
     transform="translate(312.58191,-26.798682)" />
  <g
     style="opacity:1;stop-opacity:1"
     id="g50"
     transform="translate(312.58191,-26.798682)" />
  <g
     style="opacity:1;stop-opacity:1"
     id="g52"
     transform="translate(312.58191,-26.798682)" />
  <g
     style="opacity:1;stop-opacity:1"
     id="g54"
     transform="translate(312.58191,-26.798682)" />
  <g
     style="opacity:1;stop-opacity:1"
     id="g56"
     transform="translate(312.58191,-26.798682)" />
  <g
     style="opacity:1;stop-opacity:1"
     id="g58"
     transform="translate(312.58191,-26.798682)" />
  <g
     style="opacity:1;stop-opacity:1"
     id="g60"
     transform="translate(312.58191,-26.798682)" />
  <g
     style="opacity:1;stop-opacity:1"
     id="g62"
     transform="translate(312.58191,-26.798682)" />
</svg>
