<svg xmlns="http://www.w3.org/2000/svg" viewBox="0 0 512 512" width="512" height="512"><path d="M495.946,150.531a30.773,30.773,0,0,0-31.619.83l-25.258,15.787c-25.314-9.181-50.807-19.414-75.837-30.466-20.636-9.112-35.69-16.441-47.786-22.33C288.841,101.4,276.691,95.474,255.8,96c-20.4.5-32.248,6.849-51.877,17.36-11.567,6.194-25.963,13.9-47.173,23.326a667.341,667.341,0,0,1-83.566,30.617L47.673,151.361a30.773,30.773,0,0,0-31.619-.83A30.771,30.771,0,0,0,0,177.784V272a30.982,30.982,0,0,0,14.645,26.423L64,329.271v8.247a39.848,39.848,0,0,0,14.335,30.689C163.4,439.179,255.084,440,256,440c80.638,0,141.627-39.234,178.592-72.148A40.045,40.045,0,0,0,448,337.97v-5.536l49.354-30.847A30.98,30.98,0,0,0,512,275.164v-97.38A30.771,30.771,0,0,0,495.946,150.531ZM122.738,296.483A388.2,388.2,0,0,0,256,320a388.177,388.177,0,0,0,133.262-23.517l5.477,15.033A404.123,404.123,0,0,1,256,336a404.149,404.149,0,0,1-138.738-24.483Zm-5.477-56.967,5.477-15.033A388.2,388.2,0,0,0,256,248a388.177,388.177,0,0,0,133.262-23.517l5.477,15.033A404.123,404.123,0,0,1,256,264,404.149,404.149,0,0,1,117.262,239.517ZM23.125,284.854A15.072,15.072,0,0,1,16,272V177.784A15.159,15.159,0,0,1,39.193,164.93L64,180.434V310.4ZM496,275.164a15.07,15.07,0,0,1-7.125,12.854L448,313.565V180.434l24.807-15.5A15.159,15.159,0,0,1,496,177.784Z"/></svg>
